<?xml version="1.0" encoding="utf-8" ?><svg xmlns="http://www.w3.org/2000/svg" xmlns:xlink="http://www.w3.org/1999/xlink" width="524" height="556" viewBox="0 0 524 556"><path fill="#183D4A" d="M260.406 10.8732C263.161 11.9798 275.154 21.4655 276.152 23.58C276.224 23.7323 276.274 23.894 276.341 24.0487C277 25.5848 279.961 26.555 281.262 27.6992C282.988 29.2171 283.478 31.6207 285.205 33.1089C287.401 35.0013 291.264 37.1023 292.966 38.8275C294.232 40.1106 294.667 41.977 296.034 43.2417C298.45 45.4762 301.324 47.2128 303.672 49.5198C305.358 51.1755 306.493 53.3996 308.283 54.9312C309.9 56.3151 311.973 57.1747 313.576 58.5872C315.339 60.14 316.639 62.1832 318.33 63.8106C320.101 65.5143 322.03 67.0549 323.809 68.7515C325.615 70.4743 327.249 72.3775 329.086 74.0662C330.953 75.7825 332.995 77.3023 334.824 79.063C337.206 81.3567 339.239 84.1998 341.679 86.375C343.057 87.603 344.896 88.104 346.261 89.3306C348.427 91.2761 349.917 93.8964 352.017 95.9185C353.952 97.7825 356.369 99.0488 358.35 100.831C360.289 102.575 361.654 104.916 363.544 106.713C365.02 108.115 366.749 109.291 368.295 110.622C371.773 113.614 386.642 126.768 387.915 130.107C388.879 132.639 388.333 176.866 388.327 183.46C388.314 198.633 389.689 223.129 384.704 237.252C381.604 246.036 378.885 255.1 374.516 263.378C373.752 264.827 372.342 265.791 371.557 267.188C369.782 270.346 368.699 273.765 366.674 276.833C365.288 278.933 363.44 280.676 361.866 282.627C360.276 284.599 358.963 286.782 357.284 288.685C354.456 291.891 351.173 294.622 347.996 297.467C343.692 301.323 339.32 305.421 334.511 308.647C330.109 311.601 325.38 313.733 320.75 316.246C319.001 317.196 317.525 318.651 315.737 319.506C307.132 323.617 289.957 327.506 280.257 328.542C267.976 329.853 255.872 329.512 243.555 329.664C218.159 329.856 192.762 329.854 167.366 329.658C161.666 329.621 155.966 329.641 150.267 329.72C146.25 329.793 138.073 330.315 134.544 329.456C133.736 328.758 134.092 318.303 134.097 316.397C134.089 308.823 134.139 301.249 134.247 293.676L134.302 222.514L134.235 198.789C134.225 194.783 134.069 189.016 134.346 185.108C133.969 176.136 134.262 165.128 134.156 155.946C134.093 150.604 134.066 145.261 134.076 139.919C134.076 137.207 133.894 133.519 134.344 130.755C135.19 125.56 142.616 122.568 145.372 119.54C150.201 114.235 151.348 110.573 158.421 107.296C160.267 102.048 169.427 98.4169 171.342 93.1588C172.669 89.517 172.282 82.0431 172.273 77.9698L172.222 56.9713C172.2 52.9845 172.001 47.0252 172.479 43.1962C176.077 43.2163 190.894 43.0587 193.216 44.1977C195.334 47.2356 192.992 69.4111 192.513 74.1273C196.273 71.3052 199.772 67.3447 203.117 64.0325C207.669 59.525 212.253 55.0598 216.749 50.4971C220.487 46.7038 225.317 43.7388 229.249 40.1411C230.59 38.9142 231.442 36.4901 232.88 35.252C234.286 34.0217 236.061 33.3154 237.439 31.9775C244.32 25.2966 252.328 15.8838 260.406 10.8732ZM261.811 309.212C265.936 309.036 270.137 308.192 274.232 308.116C277.904 308.048 282.026 305.702 285.35 306.282C286.661 305.764 288.269 304.515 289.015 304.295C291.512 303.559 294.413 303.068 296.968 302.346C301.902 300.954 306.904 298.838 311.62 296.836C313.371 296.093 315.6 293.92 317.184 293.024C322.051 290.268 326.917 286.965 331.184 283.344C333.604 281.29 336.342 277.774 338.78 275.495C340.949 273.467 343.253 271.874 345.035 269.542C347.127 266.803 348.645 263.339 350.577 260.536C353.388 256.456 356.532 252.78 358.344 248.004C362.219 237.796 365.416 227.409 367.029 216.575C367.49 213.483 367.332 209.146 367.517 206.004C368.014 197.589 368.063 189.309 368.025 180.883C367.978 170.455 368.222 159.916 368.013 149.497C367.961 146.953 367.423 140.591 366.597 138.461C365.877 136.605 359.684 131.96 357.926 130.282L325.211 99.2743C322.978 97.1453 320.967 94.7452 318.734 92.6412C304.731 79.45 291.283 65.6302 276.597 53.1851C275.063 51.8855 273.859 49.5842 272.3 48.2139C270.722 46.6818 267.729 45.2638 266.265 43.8954C264.67 42.4037 263.569 40.3982 261.557 38.8493L260.76 38.7366C258.55 40.3629 257.04 42.7664 254.997 44.6522C252.771 46.7073 250.366 48.7047 248.175 50.7788C246.146 52.6997 244.169 54.9476 242.148 56.9378C240.274 58.783 238.276 60.4478 236.403 62.2465C234.854 63.7342 233.242 65.5216 231.715 67.0915C229.925 68.9321 227.652 70.4074 225.897 72.0732C222.334 75.4539 218.851 78.7187 215.16 81.9666C213.105 83.7748 211.053 86.979 208.844 88.8934C207.081 90.4219 205.119 90.8242 203.622 92.1515C202.089 93.5119 200.713 96.1509 199.226 97.6078C197.617 99.1837 195.559 100.662 193.95 102.199C190.55 105.447 187.276 108.602 183.749 111.718C181.418 113.777 179.093 116.948 176.712 119.066C175.105 120.496 173.045 121.202 171.426 122.544C169.84 123.857 168.295 126.968 166.978 128.193C164.295 130.688 155.511 136.353 155.13 140.085C154.559 145.691 154.763 152.943 154.761 158.754L154.78 194.096L154.752 270.926C154.717 281.629 154.751 292.333 154.852 303.035C154.874 304.239 154.886 308.121 155.279 309.099C159.517 310.077 175.309 309.24 180.809 309.261C207.809 309.524 234.811 309.507 261.811 309.212Z"/><path fill="#11303C" d="M134.247 293.676L134.302 222.514L134.235 198.789C134.225 194.783 134.069 189.016 134.346 185.108C134.702 187.461 134.5 191.011 134.52 193.532C134.652 210.461 135.817 228.311 134.971 245.182C134.706 250.472 135.331 291.528 134.247 293.676Z"/><defs><linearGradient id="gradient_0" gradientUnits="userSpaceOnUse" x1="303.85971" y1="146.53807" x2="232.21272" y2="214.46634"><stop offset="0" stop-color="#B5A489"/><stop offset="1" stop-color="#EDD9BD"/></linearGradient></defs><path fill="url(#gradient_0)" d="M205.899 128.435C220.866 128.124 235.838 128.168 250.802 128.568C253.273 128.649 258.87 128.407 260.839 128.749C271.875 128.278 278.861 129.305 289.212 132.987C292.056 134.084 293.177 135.008 295.64 136.224C305.114 141.762 314.33 148.693 319.519 158.265C320.493 160.061 322.491 162.002 323.476 163.886C327.943 172.629 330.501 183.414 331.71 193.116C332.338 198.87 332.161 204.685 331.184 210.391C329.936 217.166 326.27 232.155 322.86 238.005C321.897 239.11 320.278 240.793 319.483 241.866C316.652 245.688 314.014 249.574 310.845 253.149C310.524 253.512 309.208 255.182 309.026 255.332C306.735 256.556 304.189 259.157 302.444 260.195C299.759 261.792 293.501 265.698 290.911 266.803C276.537 272.932 259.836 271.804 244.407 271.825L209.886 271.854C206.275 271.873 194.98 271.749 191.905 272.247C192.586 234.506 191.713 196.056 192.004 158.228C192.068 152.576 192.059 146.923 191.977 141.272C191.959 138.414 191.77 131.612 192.355 129.211C194.147 128.304 203.214 128.479 205.899 128.435ZM211.903 251.471C212.855 251.937 244.841 251.881 247.979 251.687C249.943 251.947 253.434 251.699 255.522 251.729C266.678 251.894 271.22 250.927 281.633 247.472C282.067 247.32 282.496 247.157 282.921 246.981C288.527 244.662 299.603 236.805 301.877 231.269C306.938 221.808 311.115 213.082 311.559 202.07C312.425 189.519 307.538 176 299.773 166.231C298.596 164.749 296.513 162.986 295.128 161.526C282.803 148.536 267.766 149.044 251.164 149.062L223.98 149.194C220.387 149.197 216.016 149.387 212.516 149.198C211.677 150.327 212.05 162.133 212.053 164.18L212.057 222.908C212.058 229.617 212.28 236.37 212.101 243.081C212.037 245.482 212.165 249.165 211.903 251.471Z"/><defs><linearGradient id="gradient_1" gradientUnits="userSpaceOnUse" x1="177.01717" y1="252.74937" x2="254.55235" y2="187.75954"><stop offset="0" stop-color="#705E45"/><stop offset="1" stop-color="#D7C3A5"/></linearGradient></defs><path fill="url(#gradient_1)" d="M191.905 272.247C192.586 234.506 191.713 196.056 192.004 158.228C192.068 152.576 192.059 146.923 191.977 141.272C191.959 138.414 191.77 131.612 192.355 129.211C194.147 128.304 203.214 128.479 205.899 128.435C204.753 130.288 202.198 131.95 200.287 133.148C196.456 135.549 196.403 145.129 197.275 148.793C198.083 152.19 206.469 162.786 210.139 162.774C212.376 160.495 210.107 152.402 211.567 149.298L212.068 148.968L212.516 149.198C211.677 150.327 212.05 162.133 212.053 164.18L212.057 222.908C212.058 229.617 212.28 236.37 212.101 243.081C212.037 245.482 212.165 249.165 211.903 251.471C212.855 251.937 244.841 251.881 247.979 251.687C249.943 251.947 253.434 251.699 255.522 251.729C266.678 251.894 271.22 250.927 281.633 247.472C278.776 250.78 269.585 250.065 268.546 252.876C273.894 252.037 280.616 250.969 285.752 248.895C288.122 247.938 291.408 245.635 293.55 244.156C294.292 243.643 295.596 241.618 296.281 241.73C296.037 244.431 291.214 246.009 289.619 247.902C289.52 252.658 294.481 255.194 296.98 258.761C298.039 260.272 298.4 259.536 298.149 261.443C298.42 261.476 299.718 260.95 300.162 260.807C303.485 259.732 305.143 255.136 309.026 255.332C306.735 256.556 304.189 259.157 302.444 260.195C299.759 261.792 293.501 265.698 290.911 266.803C276.537 272.932 259.836 271.804 244.407 271.825L209.886 271.854C206.275 271.873 194.98 271.749 191.905 272.247Z"/><path fill="#7A6E5C" d="M247.979 251.687C249.943 251.947 253.434 251.699 255.522 251.729C266.678 251.894 271.22 250.927 281.633 247.472C278.776 250.78 269.585 250.065 268.546 252.876C266.694 253.623 262.419 254.046 260.387 254.154C246.263 254.908 232.096 254.515 217.959 254.975C215.934 255.041 213.741 254.978 211.745 254.675C211.693 253.731 211.461 252.206 211.903 251.471C212.855 251.937 244.841 251.881 247.979 251.687Z"/><path fill="#7A6E5C" d="M260.839 128.749C271.875 128.278 278.861 129.305 289.212 132.987C292.056 134.084 293.177 135.008 295.64 136.224C305.114 141.762 314.33 148.693 319.519 158.265C320.493 160.061 322.491 162.002 323.476 163.886C327.943 172.629 330.501 183.414 331.71 193.116C329.964 190.333 328.279 175.255 325.705 171.944C324.699 170.651 322.715 168.314 321.501 167.189L321.317 167.318L321.187 168.529C319.228 165.22 317.087 162.052 314.244 159.447C312.134 157.515 312.744 157.574 311.889 155.441C310.897 153.818 309.288 152.352 308.046 150.947C297.92 139.49 282.689 135.19 269.081 129.482C267.918 128.994 263.425 129.642 260.839 128.749Z"/><path fill="#183D4A" d="M250.588 435.56C250.372 439.001 250.637 442.339 250.146 445.779C250.169 447.351 248.641 448.554 248.229 449.882C245.724 457.943 243.078 466.131 236.557 471.914C234.881 473.422 233.118 476.142 231.352 477.449C224.331 482.642 212.984 489.971 204.035 489.698C193.787 489.386 179.094 491.158 169.899 486.938C158.993 481.932 146.663 473.488 141.087 462.606C132.335 446.137 132.03 424.128 140.391 407.371C141.381 405.377 142.873 404.476 144.161 402.743C145.388 400.421 145.68 397.932 147.703 396.028C151.07 392.859 154.73 389.885 158.482 387.164C160.627 385.607 163.764 385.056 166.137 383.942C167.868 383.159 170.587 380.85 172.527 381.132C176.506 381.713 179.986 378.147 183.357 377.802C188.644 377.263 194.606 377.501 199.951 377.596C201.814 377.629 202.52 378.356 204.065 379.158C209.964 381.306 216.389 382.29 221.895 385.444C223.698 386.54 226.309 387.643 227.886 388.964C231.546 392.032 234.662 395.571 238.375 398.602C240.1 400.858 241.384 403.6 242.934 405.935C245.618 409.978 246.334 416.117 249.411 419.642C249.534 420.834 249.79 422.083 250.004 423.267C250.276 427.523 250.42 431.337 250.588 435.56ZM193.706 467.045C211.884 466.154 225.875 450.657 224.909 432.484C223.943 414.311 208.388 400.385 190.218 401.426C172.153 402.461 158.325 417.905 159.285 435.973C160.246 454.04 175.634 467.931 193.706 467.045Z"/><path fill="#183D4A" d="M15.7073 388.504C15.77 386.328 15.4398 382.382 16.5139 380.813C18.5966 379.797 37.5483 380.738 41.4768 380.53C48.7064 380.148 57.8142 380.605 65.1636 380.74C66.7425 380.813 73.2839 380.742 74.3111 380.935C79.729 382.003 85.8386 383.053 91.0758 384.667C92.6411 385.15 99.6024 387.98 100.655 389.036C102.816 391.202 105.932 394.167 108.418 396.34C111.894 399.379 115.275 404.583 117.618 408.573C119.026 411.144 119.968 415.783 120.838 418.639C124.312 430.04 125.209 438.151 121.109 449.382C120.569 450.861 119.38 453.441 119.444 454.874C119.517 456.505 118.56 457.91 117.917 459.417C115.429 465.552 111.67 469.503 107.109 474.065C101.035 480.141 94.4465 482.383 86.8217 485.551C79.5926 488.554 78.4213 488.367 70.8646 488.293L58.3183 488.255C44.6656 488.227 30.2569 488.599 16.7425 488.348C16.2429 487.884 16.2437 487.933 16.0461 487.288L15.7073 388.504ZM41.7567 466.832L42.2167 466.77C45.5515 466.335 48.9325 466.479 52.3002 466.387C56.025 466.285 59.7998 466.408 63.54 466.225C69.0377 465.956 74.7382 464.527 79.8813 462.589C82.3132 461.673 84.9372 460.689 86.6933 458.703C87.0168 458.322 87.0439 458.072 87.4526 457.752C88.4062 457.224 89.4337 456.681 90.3598 456.119C91.8458 453.34 93.9451 449.694 95.0005 446.863C98.376 437.806 97.7748 425.223 92.8112 416.843C90.9078 413.629 83.5403 407.266 80.2001 405.488C77.8478 404.231 75.3199 403.335 72.7011 402.828C66.5065 401.655 48.6634 401.948 41.7666 402.193C41.5144 404.011 41.8514 412.329 41.8353 415.082L41.8126 449.598C41.8209 453.942 42.1084 462.755 41.7567 466.832Z"/><path fill="#183D4A" d="M385.927 380.211C387.276 380.259 388.34 380.169 389.229 381.296C389.809 383.592 389.643 395.423 389.645 398.323L389.461 439.123C389.403 445.621 390.262 484.85 388.879 488.073C386.686 489.051 371.203 487.87 367.551 488.459C366.739 488.59 366.281 488.207 365.753 487.728C365.152 486.25 366.043 472.554 365.487 469.413C364.071 461.417 365.431 454.033 365.59 446.097C365.722 439.502 365.401 432.761 365.39 426.113C360.998 431.873 359.184 437.399 355.564 443.647C353.688 446.887 351.866 449.317 349.912 452.419C348.483 454.688 347.165 457.783 345.73 460.171C343.98 463.083 342.209 466.052 340.378 468.913C338.786 471.4 337.13 475.471 335.342 477.541C333.706 478.419 325.331 478.125 322.998 478.043C318.195 473.937 315.722 467.814 312.55 462.509L301.156 443.25C298.899 439.368 296.061 436.08 294.489 431.835C294.002 430.521 293.293 428.971 292.67 427.732L292.306 427.752C291.353 429.83 292.038 456.924 292.37 461.188C292.523 464.585 292.29 468.437 292.217 471.887C292.081 477.46 292.047 483.034 292.114 488.607C289.821 488.215 287.304 488.399 284.993 488.311C279.659 488.108 273.452 488.468 268.208 488.034C267.738 487.3 267.695 484.789 267.688 483.867C267.496 456.217 267.722 428.566 267.554 400.914C267.513 394.198 267.467 387.317 267.728 380.619C274.271 380.387 283.418 380.317 289.918 381.027C291.823 382.735 295.199 390.996 297.065 393.949L316.032 424.649C317.781 427.444 320.423 430.445 322.01 433.161C324.188 436.887 326.157 442.958 328.879 446.328C332.21 441.002 334.792 435.875 337.675 430.323C339.327 427.144 342.365 424.155 343.998 420.818C346.054 417.75 347.861 411.176 350.039 408.442C354.849 402.407 358.168 396.514 361.497 389.48C363.108 386.077 365.861 383.319 368.679 380.84C374.621 380.73 380.145 380.367 385.927 380.211Z"/><path fill="#183D4A" d="M482.033 389.47C482.022 387.115 481.723 382.626 482.722 380.687C484.16 380.159 503.625 380.379 506.204 380.51C506.789 392.038 506.54 405.98 506.519 417.576L506.474 437.774C506.458 443.642 506.36 449.801 505.772 455.651C505.504 458.315 504.461 461.408 503.895 464.037C501.915 472.721 486.822 486.164 478.405 488.365C469.358 490.731 451.667 489.98 442.141 489.016C437.849 488.581 426.517 480.37 423.12 477.226C419.004 473.415 413.262 462.967 411.791 457.175C410.175 448.114 410.075 438.475 410.125 429.399L410.185 408.385L410.211 392.326C410.218 389.116 410.037 383.585 410.712 380.656C418.509 380.544 427.809 380.922 435.459 380.263C436.12 401.572 435.019 423.966 436.054 445.286C436.245 449.224 440.042 458.411 442.97 461.254C446.552 464.732 449.072 466.236 454.048 466.668C464.449 469.345 477.872 463.296 480.382 452.177C482.347 443.465 482.027 432.336 482.06 422.84L482.033 389.47Z"/><path fill="#11303C" d="M482.033 389.47C482.022 387.115 481.723 382.626 482.722 380.687C484.16 380.159 503.625 380.379 506.204 380.51C506.789 392.038 506.54 405.98 506.519 417.576L506.474 437.774C506.458 443.642 506.36 449.801 505.772 455.651C505.504 458.315 504.461 461.408 503.895 464.037C503.691 462.367 503.887 456.995 503.889 454.961L503.984 433.286C504.077 420.73 504.072 408.174 503.969 395.619C503.905 390.806 503.522 385.988 503.498 381.297C497.233 381.412 489.488 380.026 483.471 381.704C482.521 381.969 482.681 387.815 482.033 389.47Z"/><path fill="#7A6E5C" fill-opacity="0.98823529" d="M262.399 514.141C269.198 513.852 274.983 519.048 275.421 525.84C275.859 532.631 270.79 538.528 264.01 539.114C259.49 539.505 255.112 537.419 252.568 533.663C250.024 529.907 249.712 525.068 251.753 521.017C253.793 516.965 257.866 514.334 262.399 514.141ZM265.084 535.846C267.359 535.261 270.269 534.135 271.266 531.851C274.718 523.944 269.821 516.692 261.081 517.522C254.702 519.522 252.114 524.39 254.307 530.753C254.993 532.752 256.492 534.368 258.433 535.204C260.623 536.17 262.777 536.116 265.084 535.846Z"/><path fill="#7A6E5C" d="M65.0338 515.922C65.1989 515.37 65.3266 514.364 66.0245 514.306C72.0536 513.806 80.4285 513.383 84.4942 518.536C87.1767 522.258 88.0561 526.966 86.5702 531.378C84.2753 538.192 75.1234 540.409 68.7747 539.068C67.7111 538.843 67.0092 539.257 65.7734 538.79C64.2958 537.133 65.8488 519.664 65.0338 515.922ZM68.0201 535.863C72.6861 536.202 77.0209 536.755 81.1778 534.247L81.47 534.073C81.5278 534.038 81.5855 534.002 81.6433 533.966C84.0084 531.671 84.3373 530.26 84.3815 527.059C84.5273 516.497 75.5164 518.163 69.042 517.567C68.5322 518.014 68.2653 518.297 68.2837 519.055C68.4197 524.676 68.2886 530.246 68.0201 535.863Z"/><path fill="#7A6E5C" fill-opacity="0.98823529" d="M420.403 514.275C430.945 512.9 437.502 520.401 435.022 530.929C434.095 534.865 429.984 537.459 426.524 539.247C426.134 539.292 425.744 539.334 425.354 539.375C411.288 540.804 406.546 523.244 417.2 515.527C418.545 514.553 418.703 514.409 420.403 514.275ZM414.422 530.594C417.453 533.951 419.648 536.464 424.559 536.042C426.718 535.784 429.627 534.906 430.687 532.965C435.111 524.865 431.253 516.618 421.669 517.482C413.93 520.768 414.329 523.142 414.422 530.594Z"/><path fill="#7A6E5C" fill-opacity="0.98823529" d="M155.977 514.287C158.262 514.085 160.26 514.204 162.418 515.102C168.811 517.763 171.206 525.969 168.594 532.069C166.847 536.148 163.234 537.686 159.432 539.217C153.289 540.614 146.372 535.761 145.529 529.415C144.517 521.789 147.779 515.279 155.977 514.287ZM158.284 536.024C160.962 535.342 163.982 534.501 165.415 531.963C167.929 527.512 166.957 520.869 162.033 518.458C160.713 517.811 158.06 516.705 156.695 516.895C153.36 518.267 150.471 518.977 148.896 522.564C147.831 524.989 147.859 528.525 148.883 530.944C149.791 533.079 151.56 534.73 153.752 535.49C155.204 536 156.758 536.09 158.284 536.024Z"/><path fill="#7A6E5C" fill-opacity="0.98431373" d="M118.462 514.214C122.424 514.212 130.33 513.804 133.664 515.314C141.869 519.031 142.207 531.125 135.659 536.481C129.487 539.93 125.267 539.575 118.143 539.4L118.416 524.002C118.449 520.607 118.279 517.646 118.462 514.214ZM122.111 531.702C121.85 532.983 121.468 534.217 121.708 535.469C123.278 537.175 131.79 535.66 133.915 534.6C138.884 531.073 138.853 524.839 135.187 520.418C133.177 517.993 122.583 516.603 122.046 518.106C121.406 519.898 121.688 529.699 122.111 531.702Z"/><path fill="#7A6E5C" fill-opacity="0.98431373" d="M282.057 514.264C286.174 514.241 293.419 513.853 297.042 515.562C299.576 516.757 300.262 518.656 301.001 521.087C300.297 523.317 299.627 524.118 298.202 525.863C301.155 528.244 303.582 533.234 300.32 536.286C295.712 540.136 288.017 539.212 282.091 539.219C281.703 535.515 281.338 517.393 282.057 514.264ZM284.15 536.112L284.509 536.09C288.746 535.851 293.41 536.946 296.952 535.061C299.802 532.003 298.057 530.998 295.683 528.177C292.132 527.883 287.721 528.003 284.514 527.624C284.366 530.486 284.497 533.321 284.15 536.112ZM284.486 524.789C287.467 524.907 291.442 525.18 294.337 524.863C295.743 524.035 296.551 523.462 296.934 521.804C298.122 516.655 289.574 516.973 286.565 517.015C285.224 517.157 285.475 516.932 284.581 517.651C283.588 519.757 284.214 522.392 284.486 524.789Z"/><path fill="#7A6E5C" fill-opacity="0.98431373" d="M379.247 514.03C384.906 514.06 391.1 513.215 394.397 518.893C397.124 523.591 394.044 528.016 390.2 530.763C390.413 533.265 396.135 536.991 395.404 539.039C393.862 539.892 392.647 539.221 391.711 537.959C390.258 535.645 388.831 533.315 387.429 530.97L386.889 531.026C384.258 531.318 382.642 531.266 380.003 531.218C379.509 533.44 379.977 538.525 378.333 539.706C377.519 539.56 377.911 539.701 377.226 539.022C376.62 537.226 376.462 517.213 376.943 514.856C377.554 514.186 378.309 514.197 379.247 514.03ZM379.97 528.762C383.495 528.32 387.358 529.007 389.468 527.577C390.69 526.243 392.419 524.114 392.17 522.263C391.495 517.252 384.367 517.315 380.914 517.261C379.551 518.221 379.714 519.732 379.747 521.308C379.797 523.736 379.774 526.347 379.97 528.762Z"/><path fill="#7A6E5C" fill-opacity="0.98823529" d="M100.369 514.222C101.225 514.186 102.76 514.148 103.327 514.919C106.171 518.783 107.028 523.997 108.944 528.364C110.52 531.954 113.645 534.858 113.984 538.722C114.015 539.077 113.686 539.24 113.434 539.47C110.192 540.261 108.645 534.473 107.471 531.954C106.326 532.268 105.842 532.336 104.653 532.484C101.83 532.564 99.0064 532.544 96.1857 532.424C94.5286 534.679 93.6027 540.169 90.4179 539.055L90.2119 538.554C90.6409 536.697 92.171 534.08 92.923 532.061C94.5932 527.67 96.0865 523.206 98.0169 518.917C98.7383 517.314 99.0795 515.43 100.369 514.222ZM96.7635 529.806C98.7877 530.071 99.7224 530.2 101.746 530.125C103.458 530.141 105.27 530.123 106.967 530.255C106.271 528.166 103.698 519.796 102.052 519.17C98.7063 523.285 98.5413 524.773 96.7635 529.806Z"/><path fill="#7A6E5C" fill-opacity="0.98431373" d="M358.248 514.641L359.506 514.005C362.934 515.729 371.858 537.258 371.231 539.132C368.32 540.983 367.573 534.648 366.022 532.417C362.146 532.286 358.033 532.448 354.134 532.537C352.643 534.604 350.694 538.59 348.856 539.126L348.112 538.938C347.398 537.216 357.125 517.646 358.248 514.641ZM354.429 529.668C356.719 530.161 359.074 530.107 361.418 530.223C362.842 530.107 364.267 530.001 365.693 529.907C364.735 527.997 360.174 519.713 358.902 518.403C357.085 521.736 356.554 525.876 354.429 529.668Z"/><path fill="#7A6E5C" fill-opacity="0.98823529" d="M242.749 513.545L243.379 513.839C244.224 516.683 244.71 537.431 243.095 539.274L242.549 539.289C242.142 538.904 241.412 538.189 241.415 537.601C241.442 531.977 240.887 526.106 241.29 520.508C240.672 521.906 233.344 534.555 232.637 535.162C228.052 534.319 224.98 522.652 222.249 522.487C221.897 523.704 222.26 525.138 222.045 526.613C222.294 529.398 223.069 536.759 221.819 538.999C221.012 539.501 221.433 539.43 220.518 539.241C219.574 538.353 219.328 535.918 219.496 534.761C219.91 531.918 218.985 516.015 220.215 514.34C222.482 514.269 223.711 519.232 224.801 520.432C226.44 522.236 230.643 530.38 231.836 531.28C233.342 530.891 234.036 526.824 234.916 525.44C236.299 523.265 237.994 521.314 239.394 519.158C240.555 517.369 241.238 515.598 242.524 513.849L242.749 513.545Z"/><path fill="#7A6E5C" fill-opacity="0.98823529" d="M457.571 530.488C460.017 539.187 445.61 542.611 440.959 536.365C440.474 535.714 440.274 535.739 440.356 534.917C442.692 533.705 452.99 539.776 454.591 533.046C455.118 530.832 452.616 529.731 450.934 529.121C445.354 527.099 437.94 525.513 441.402 517.74C442.73 514.682 446.215 514.184 449.216 513.963C451.354 513.805 453.251 514.364 455.141 515.137C456.022 516.079 456.715 517.231 455.63 518.353C453.721 518.661 451.65 517.291 449.654 516.756C439.492 519.361 443.015 524.102 450.832 525.568C454.627 526.28 455.612 527.173 457.571 530.488Z"/><path fill="#7A6E5C" fill-opacity="0.98431373" d="M180.192 513.989C182.249 513.778 192.279 513.781 190.256 517.928C188.117 518.962 183.833 516.161 181.275 516.862C179.345 517.39 176.805 520.092 177.235 522.129C180.705 526.338 190.152 524.416 191.514 530.961C192.568 536.027 188.582 538.605 184.247 539.416C181.952 539.472 173.134 538.075 174.037 534.651C176.195 533.49 184.653 538.733 187.626 535.031C188.405 534.061 189.181 533.562 189.142 532.233C188.404 530.262 185.6 529.397 183.839 528.797C178.557 526.996 171.391 524.021 175.562 517.165C176.808 515.118 177.953 514.622 180.192 513.989Z"/><path fill="#7A6E5C" fill-opacity="0.98823529" d="M319.456 514.198C320.38 514.282 321.527 514.282 322.159 514.891C322.547 517.151 322.262 533.192 321.968 535.7C324.905 535.929 333.631 535.207 335.215 537.084C335.471 537.975 335.527 537.974 335.332 538.915L334.758 539.146C332.65 539.448 320.688 539.746 319.061 539.125C318.616 538.049 318.381 535.508 318.514 534.394C318.906 531.134 317.721 516.032 319.456 514.198Z"/><path fill="#7A6E5C" fill-opacity="0.98431373" d="M339.915 514.469C340.746 514.464 341.824 514.403 342.577 514.667C342.954 514.799 343.235 515.069 343.272 515.428C343.679 519.338 343.762 536.735 342.739 539.518C341.625 539.551 340.843 539.666 339.792 539.293C339.091 537.558 339.716 517.42 339.915 514.469Z"/><path fill="#7A6E5C" fill-opacity="0.98431373" d="M307.718 514.011C309.031 514.077 310.068 514.014 311.024 514.844C311.492 517.357 311.345 536.644 310.92 539.328C309.573 539.496 308.781 539.595 307.916 538.449C307.571 536.242 307.297 515.941 307.718 514.011Z"/><path fill="#7A6E5C" fill-opacity="0.98823529" d="M402.259 514.118C403.329 514.248 404.198 514.221 405.025 514.853C405.558 516.493 405.542 538.25 404.931 539.508C403.929 539.336 402.856 539.335 402.196 538.655C401.504 534.937 401.735 518.267 402.259 514.118Z"/><path fill="#7A6E5C" fill-opacity="0.98039216" d="M208.909 513.837C209.343 513.991 209.866 514.226 210.301 514.407C211.329 515.783 210.705 521.934 210.675 523.951C210.575 528.788 210.665 533.627 210.946 538.456C210.523 539.269 210.619 539.024 209.597 539.518L208.413 539.314C207.639 538.496 207.783 536.585 207.799 535.479C207.893 528.806 207.74 522.099 208.079 515.435C208.124 514.551 208.379 514.459 208.909 513.837Z"/><path fill="#7A6E5C" fill-opacity="0.97254902" d="M358.248 514.641C358.768 511.665 359.506 506.676 364.471 508.022C364.826 508.119 364.797 508.391 364.914 508.756C363.641 510.911 359.421 510.176 359.506 514.005L358.248 514.641Z"/></svg>